<?xml version="1.0" encoding="iso-8859-1"?>
<!-- Uploaded to: SVG Repo, www.svgrepo.com, Generator: SVG Repo Mixer Tools -->
<svg version="1.1" id="Layer_1" xmlns="http://www.w3.org/2000/svg" xmlns:xlink="http://www.w3.org/1999/xlink" 
	 viewBox="0 0 511.999 511.999" xml:space="preserve">
<polyline style="fill:#CFDCE5;" points="342.755,135.177 476.044,135.177 476.044,493.477 36.202,493.477 36.202,135.177 
	169.491,135.177 "/>
<polyline style="fill:#FCD577;" points="179.224,135.177 60.912,135.177 9.279,135.177 60.912,17.816 451.334,17.816 
	502.966,135.177 451.334,135.177 333.021,135.177 "/>
<polyline style="fill:#CFDCE5;" points="383.675,185.833 256.123,58.282 128.571,185.833 "/>
<g>
	<polyline style="fill:#FFFFFF;" points="282.865,451.855 143.691,451.855 143.691,493.477 368.554,493.477 368.554,451.855 
		313.752,451.855 	"/>
	<polyline style="fill:#FFFFFF;" points="342.202,451.855 342.202,410.232 170.044,410.232 170.044,451.855 	"/>
</g>
<rect x="204.237" y="226.775" style="fill:#BAC6CC;" width="103.773" height="183.471"/>
<g>
	<rect x="353.72" y="254.561" style="fill:#FCD577;" width="77.834" height="107.485"/>
	<rect x="80.686" y="254.561" style="fill:#FCD577;" width="77.834" height="107.485"/>
</g>
<path d="M511.224,131.844L459.592,14.483c-1.463-3.324-4.75-5.469-8.381-5.469H60.789c-3.631,0-6.919,2.145-8.381,5.469
	L0.775,131.844c-1.245,2.831-0.977,6.101,0.713,8.691c1.691,2.591,4.576,4.152,7.668,4.152h17.766V493.83
	c0,5.057,4.1,9.156,9.156,9.156h107.49h224.863h107.49c5.057,0,9.156-4.1,9.156-9.156V237.626c0-5.057-4.1-9.156-9.156-9.156
	c-5.057,0-9.156,4.1-9.156,9.156v247.047h-89.177v-32.465c0-5.057-4.1-9.156-9.156-9.156h-17.196v-32.465
	c0-5.057-4.1-9.156-9.156-9.156h-25.034V227.121c0-5.057-4.1-9.156-9.156-9.156H204.111c-5.057,0-9.156,4.1-9.156,9.156v109.338
	c0,5.057,4.1,9.156,9.156,9.156s9.156-4.1,9.156-9.156V236.278h85.465V401.43h-85.465v-34.083c0-5.057-4.1-9.156-9.156-9.156
	s-9.156,4.1-9.156,9.156v34.083H169.92c-5.057,0-9.156,4.1-9.156,9.156v32.465h-17.196c-5.057,0-9.156,4.1-9.156,9.156v32.465
	H45.235V144.688h111.764l-35.025,35.025c-3.576,3.576-3.576,9.374,0,12.948c3.576,3.576,9.374,3.576,12.948,0L255.998,71.585
	l121.076,121.076c1.787,1.787,4.131,2.682,6.474,2.682s4.687-0.894,6.474-2.682c3.576-3.576,3.576-9.374,0-12.948l-35.025-35.025
	h111.764v62.05c0,5.057,4.1,9.156,9.156,9.156c5.057,0,9.156-4.1,9.156-9.156v-62.05h17.766c3.094,0,5.977-1.561,7.668-4.152
	C512.202,137.944,512.47,134.675,511.224,131.844z M152.724,461.364h130.018c5.057,0,9.156-4.1,9.156-9.156
	c0-5.057-4.1-9.156-9.156-9.156H179.078v-23.309h153.846v23.309h-19.292c-5.057,0-9.156,4.1-9.156,9.156
	c0,5.057,4.1,9.156,9.156,9.156h45.646v23.309H152.724V461.364z M336.688,126.375l-74.214-74.214c-3.576-3.576-9.374-3.576-12.948,0
	l-74.214,74.214H23.187l43.575-99.048h378.473l43.575,99.048H336.688z"/>
<path d="M353.6,245.763c-5.057,0-9.156,4.1-9.156,9.156v107.485c0,5.057,4.1,9.156,9.156,9.156h77.834
	c5.057,0,9.156-4.1,9.156-9.156V254.919c0-5.057-4.1-9.156-9.156-9.156L353.6,245.763L353.6,245.763z M422.277,353.247h-59.521
	V306.7h37.789c5.057,0,9.156-4.1,9.156-9.156c0-5.057-4.1-9.156-9.156-9.156h-37.789v-24.31h59.521V353.247z"/>
<path d="M80.565,245.763c-5.057,0-9.156,4.1-9.156,9.156v107.485c0,5.057,4.1,9.156,9.156,9.156h77.834
	c5.057,0,9.156-4.1,9.156-9.156V254.919c0-5.057-4.1-9.156-9.156-9.156L80.565,245.763L80.565,245.763z M149.243,264.076v24.31
	H89.722v-24.31H149.243z M89.722,353.247V306.7h59.521v46.548H89.722z"/>
<circle cx="229.619" cy="323.491" r="9.156"/>
</svg>